# xmcd CD database file
#
# Track frame offsets:
#	150
#	12585
#	27173
#	38736
#	56665
#	68121
#	79507
#	90607
#
# Disc length: 1333 seconds
#
# Revision: 0
# Processed by: cddbd v1.5.2PL0 Copyright (c) Steve Scherf et al.
# Submitted via: CDex 1.86
#
DISCID=5b053308
DTITLE=Dinah Washington - Standards
DYEAR=1900
DGENRE=Jazz
TTITLE0=Teach Me Tonight
TTITLE1=Am I Blue
TTITLE2=Somebody Loves Me
TTITLE3=I'll Close My Eyes
TTITLE4=I Thought About You
TTITLE5=Love Is Here To Stay
TTITLE6=Cry Me A River
TTITLE7=September In The Rain
EXTD=
EXTT0=
EXTT1=
EXTT2=
EXTT3=
EXTT4=
EXTT5=
EXTT6=
EXTT7=
PLAYORDER=
